<?xml version="1.0" standalone="no"?>
<!DOCTYPE svg PUBLIC "-//W3C//DTD SVG 20010904//EN"
 "http://www.w3.org/TR/2001/REC-SVG-20010904/DTD/svg10.dtd">
<svg version="1.0" xmlns="http://www.w3.org/2000/svg"
 width="218.000000pt" height="218.000000pt" viewBox="0 0 218.000000 218.000000"
 preserveAspectRatio="xMidYMid meet">
<metadata>
Created by potrace 1.11, written by Peter Selinger 2001-2013
</metadata>
<g transform="translate(0.000000,218.000000) scale(0.100000,-0.100000)"
fill="#000000" stroke="none">
<path d="M654 1745 c-250 -250 -450 -459 -474 -495 -97 -143 -134 -268 -134
-455 0 -107 4 -143 22 -204 45 -143 110 -256 204 -351 115 -117 250 -186 440
-226 53 -11 218 -5 288 11 91 21 88 21 175 0 150 -36 357 -13 501 54 391 183
570 649 398 1038 -57 128 -104 182 -535 613 -233 234 -431 430 -439 436 -12 9
-93 -67 -446 -421z m759 -338 c344 -345 369 -377 397 -502 11 -49 14 -151 6
-190 -15 -70 -58 -165 -94 -205 -75 -85 -189 -166 -208 -148 -4 4 9 41 29 81
44 91 75 198 83 292 l6 71 -78 83 c-44 46 -111 118 -151 160 -56 59 -75 73
-84 64 -8 -8 -9 -16 -2 -25 38 -48 52 -204 27 -308 -19 -81 -81 -210 -131
-272 -47 -58 -93 -82 -142 -75 -76 12 -200 195 -235 346 -21 88 -15 211 13
279 25 62 25 62 8 62 -8 0 -63 -53 -123 -117 -60 -64 -126 -134 -147 -157 -39
-40 -39 -40 -33 -106 3 -37 8 -73 10 -81 3 -8 8 -27 10 -42 8 -49 36 -125 68
-183 35 -66 28 -85 -23 -58 -246 126 -333 433 -190 675 15 26 645 675 659 678
1 1 147 -144 325 -322z"/>
</g>
</svg>
