<?xml version="1.0" encoding="UTF-8" standalone="no"?>
<svg
   xmlns:dc="http://purl.org/dc/elements/1.1/"
   xmlns:cc="http://creativecommons.org/ns#"
   xmlns:rdf="http://www.w3.org/1999/02/22-rdf-syntax-ns#"
   xmlns:svg="http://www.w3.org/2000/svg"
   xmlns="http://www.w3.org/2000/svg"
   xmlns:sodipodi="http://sodipodi.sourceforge.net/DTD/sodipodi-0.dtd"
   xmlns:inkscape="http://www.inkscape.org/namespaces/inkscape"
   width="34"
   height="34"
   viewBox="0 0 34 34"
   fill="none"
   version="1.1"
   id="svg25"
   sodipodi:docname="instagram.svg"
   inkscape:version="1.0.2-2 (e86c870879, 2021-01-15)">
  <metadata
     id="metadata29">
    <rdf:RDF>
      <cc:Work
         rdf:about="">
        <dc:format>image/svg+xml</dc:format>
        <dc:type
           rdf:resource="http://purl.org/dc/dcmitype/StillImage" />
        <dc:title></dc:title>
      </cc:Work>
    </rdf:RDF>
  </metadata>
  <sodipodi:namedview
     pagecolor="#ffffff"
     bordercolor="#666666"
     borderopacity="1"
     objecttolerance="10"
     gridtolerance="10"
     guidetolerance="10"
     inkscape:pageopacity="0"
     inkscape:pageshadow="2"
     inkscape:window-width="1920"
     inkscape:window-height="1017"
     id="namedview27"
     showgrid="false"
     inkscape:zoom="8.4653629"
     inkscape:cx="28.666771"
     inkscape:cy="43.836296"
     inkscape:window-x="-8"
     inkscape:window-y="-8"
     inkscape:window-maximized="1"
     inkscape:current-layer="svg25" />
  <g
     filter="url(#filter0_d)"
     id="g4"
     transform="translate(-17.837392,-5.1976508)">
    <circle
       cx="35"
       cy="22.380501"
       r="16.7999"
       fill="#f53838"
       id="circle2" />
  </g>
  <path
     d="m 22.412608,17.182949 c 0,1.3924 -0.5532,2.7277 -1.5377,3.7123 -0.9846,0.9845 -2.32,1.5377 -3.7123,1.5377 -1.3924,0 -2.7278,-0.5532 -3.7124,-1.5377 -0.9845,-0.9846 -1.5376,-2.3199 -1.5376,-3.7123 0,-0.2993 0.0315,-0.5915 0.0857,-0.875 h -1.8357 v 6.9947 c 0,0.4865 0.3937,0.8803 0.8802,0.8803 h 12.2413 c 0.2331,-5e-4 0.4566,-0.0934 0.6213,-0.2585 0.1647,-0.165 0.2572,-0.3886 0.2572,-0.6218 v -6.9947 h -1.8358 c 0.0543,0.2835 0.0858,0.5757 0.0858,0.875 z m -5.25,3.5 c 0.4597,-10e-5 0.9149,-0.0908 1.3396,-0.2669 0.4247,-0.176 0.8106,-0.434 1.1356,-0.7591 0.325,-0.3252 0.5828,-0.7112 0.7586,-1.136 0.1758,-0.4248 0.2663,-0.88 0.2662,-1.3398 -2e-4,-0.4597 -0.0908,-0.9149 -0.2669,-1.3396 -0.176,-0.4247 -0.434,-0.8106 -0.7591,-1.1356 -0.3252,-0.325 -0.7112,-0.5828 -1.136,-0.7586 -0.4248,-0.1759 -0.8801,-0.2663 -1.3398,-0.2662 -0.9285,3e-4 -1.8189,0.3693 -2.4752,1.026 -0.6564,0.6567 -1.025,1.5473 -1.0248,2.4758 2e-4,0.9285 0.3693,1.8188 1.026,2.4752 0.6567,0.6564 1.5473,1.025 2.4758,1.0248 z m 4.2,-7.175 h 2.0982 c 0.1394,0 0.2731,-0.0553 0.3719,-0.1537 0.0987,-0.0984 0.1544,-0.2319 0.1549,-0.3713 v -2.0983 c 0,-0.1397 -0.0555,-0.2737 -0.1543,-0.3725 -0.0988,-0.0987 -0.2328,-0.1542 -0.3725,-0.1542 h -2.0982 c -0.1397,0 -0.2737,0.0555 -0.3725,0.1542 -0.0988,0.0988 -0.1543,0.2328 -0.1543,0.3725 v 2.0983 c 0.0018,0.2887 0.238,0.525 0.5268,0.525 z m -4.2,-13.12502951 c -4.4557,0 -8.7288003,1.76999001 -11.8794003,4.92063001 -3.1507,3.1506 -4.92060003,7.4236995 -4.92060003,11.8793995 0,4.4556 1.76990003,8.7288 4.92060003,11.8794 3.1506,3.1506 7.4237003,4.9206 11.8794003,4.9206 2.2062,0 4.3908,-0.4346 6.429,-1.2789 2.0383,-0.8442 3.8903,-2.0817 5.4504,-3.6417 1.56,-1.5601 2.7975,-3.4121 3.6417,-5.4503 0.8443,-2.0383 1.2789,-4.2229 1.2789,-6.4291 0,-2.2062 -0.4346,-4.3908 -1.2789,-6.4291 -0.8442,-2.0382995 -2.0817,-3.8902995 -3.6417,-5.4502995 -1.5601,-1.56005 -3.4121,-2.79753 -5.4504,-3.64181 -2.0382,-0.84428001 -4.2228,-1.27882001 -6.429,-1.27882001 z m 8.75,23.60572951 c 0,1.0693 -0.875,1.9443 -1.9443,1.9443 h -13.6115 c -1.0692003,0 -1.9442003,-0.875 -1.9442003,-1.9443 v -13.6115 c 0,-1.0691995 0.875,-1.9441995 1.9442003,-1.9441995 h 13.6115 c 1.0693,0 1.9443,0.875 1.9443,1.9441995 z"
     fill="#ffffff"
     id="path6" />
  <defs
     id="defs23">
    <filter
       id="filter0_d"
       x="0.200073"
       y="0.58056599"
       width="69.599899"
       height="69.599899"
       filterUnits="userSpaceOnUse"
       color-interpolation-filters="sRGB">
      <feFlood
         flood-opacity="0"
         result="BackgroundImageFix"
         id="feFlood8" />
      <feColorMatrix
         in="SourceAlpha"
         type="matrix"
         values="0 0 0 0 0 0 0 0 0 0 0 0 0 0 0 0 0 0 127 0"
         id="feColorMatrix10" />
      <feOffset
         dy="13"
         id="feOffset12" />
      <feGaussianBlur
         stdDeviation="9"
         id="feGaussianBlur14" />
      <feColorMatrix
         type="matrix"
         values="0 0 0 0 0.0658854 0 0 0 0 0.0730469 0 0 0 0 0.1375 0 0 0 0.08 0"
         id="feColorMatrix16" />
      <feBlend
         mode="normal"
         in2="BackgroundImageFix"
         result="effect1_dropShadow"
         id="feBlend18" />
      <feBlend
         mode="normal"
         in="SourceGraphic"
         in2="effect1_dropShadow"
         result="shape"
         id="feBlend20" />
    </filter>
  </defs>
</svg>
