<?xml version="1.0" encoding="UTF-8" standalone="no"?>
<svg
   xmlns:dc="http://purl.org/dc/elements/1.1/"
   xmlns:cc="http://creativecommons.org/ns#"
   xmlns:rdf="http://www.w3.org/1999/02/22-rdf-syntax-ns#"
   xmlns:svg="http://www.w3.org/2000/svg"
   xmlns="http://www.w3.org/2000/svg"
   xmlns:sodipodi="http://sodipodi.sourceforge.net/DTD/sodipodi-0.dtd"
   xmlns:inkscape="http://www.inkscape.org/namespaces/inkscape"
   width="20"
   height="19"
   viewBox="0 0 20 19"
   fill="none"
   version="1.1"
   id="svg4"
   sodipodi:docname="left_white_arrow.svg"
   inkscape:version="1.0.2-2 (e86c870879, 2021-01-15)">
  <metadata
     id="metadata10">
    <rdf:RDF>
      <cc:Work
         rdf:about="">
        <dc:format>image/svg+xml</dc:format>
        <dc:type
           rdf:resource="http://purl.org/dc/dcmitype/StillImage" />
      </cc:Work>
    </rdf:RDF>
  </metadata>
  <defs
     id="defs8" />
  <sodipodi:namedview
     pagecolor="#ffffff"
     bordercolor="#666666"
     borderopacity="1"
     objecttolerance="10"
     gridtolerance="10"
     guidetolerance="10"
     inkscape:pageopacity="0"
     inkscape:pageshadow="2"
     inkscape:window-width="1920"
     inkscape:window-height="1017"
     id="namedview6"
     showgrid="false"
     inkscape:zoom="22.368421"
     inkscape:cx="11.331833"
     inkscape:cy="9.8349635"
     inkscape:window-x="-8"
     inkscape:window-y="-8"
     inkscape:window-maximized="1"
     inkscape:current-layer="svg4" />
  <path
     d="M 18.75,10.501336 H 3.925 l 4.5375,5.45 c 0.2122,0.25527 0.3143,0.58437 0.2838,0.91491 -0.0305,0.33053 -0.191,0.63542 -0.4463,0.847592 -0.2553,0.212173 -0.5844,0.314251 -0.9149,0.283776 -0.3305,-0.03048 -0.6354,-0.191005 -0.8476,-0.446276 l -6.25,-7.500002 C 0.2455,9.9916856 0.2078,9.9290156 0.175,9.8638356 c 0,-0.0625 0,-0.1 -0.0875,-0.1625 C 0.0308,9.5580156 0.0012,9.4054456 0,9.2513352 c 0.0012,-0.15411 0.0308,-0.30667 0.0875,-0.45 0,-0.0625 0,-0.1 0.0875,-0.1625 0.0328,-0.06517 0.0705,-0.12784 0.1125,-0.18749 l 6.25,-7.50000001 c 0.1175,-0.1411 0.2647,-0.2546 0.4311,-0.3324 0.1663,-0.0777 0.3478,-0.1179 0.5314,-0.1176 0.2921,-6e-4 0.5751,0.1011 0.8,0.2875 0.1266,0.1049 0.2312,0.23380001 0.3079,0.37920001 0.0767,0.1455 0.1239,0.3046 0.139,0.4683 0.0151,0.1637 -0.0022,0.3288 -0.051,0.4858 -0.0488,0.157 -0.1281,0.3029 -0.2334,0.4292 l -4.5375,5.45 H 18.75 c 0.33152,0 0.649464,0.1317 0.883884,0.3661 C 19.868305,8.6018752 20,8.9198152 20,9.2513352 c 0,0.3315204 -0.131695,0.6494604 -0.366116,0.8838908 -0.23442,0.23442 -0.552364,0.36611 -0.883884,0.36611 z"
     fill="#ffffff"
     id="path2" />
</svg>
